<svg 
 xmlns="http://www.w3.org/2000/svg"
 xmlns:xlink="http://www.w3.org/1999/xlink"
 width="14px" height="14px">
<path fill-rule="evenodd"  fill="rgb(216, 35, 42)"
 d="M14.000,11.375 L9.803,10.442 C9.803,10.442 9.803,10.442 9.803,10.442 C8.902,12.036 7.212,13.125 5.250,13.125 C4.941,13.125 4.642,13.085 4.347,13.034 L0.000,14.000 L0.829,10.685 C0.310,9.871 0.000,8.911 0.000,7.875 C0.000,5.347 1.787,3.239 4.166,2.740 C4.166,2.740 4.166,2.740 4.166,2.740 C5.058,1.114 6.765,-0.000 8.750,-0.000 C11.649,-0.000 14.000,2.350 14.000,5.250 C14.000,6.286 13.690,7.246 13.171,8.060 L14.000,11.375 ZM1.750,7.884 C1.750,8.537 1.942,9.184 2.305,9.754 L2.709,10.389 L2.385,11.686 L4.305,11.259 L4.647,11.318 C4.904,11.364 5.090,11.383 5.250,11.383 C7.180,11.383 8.750,9.814 8.750,7.884 C8.750,5.954 7.180,4.384 5.250,4.384 C3.320,4.384 1.750,5.954 1.750,7.884 ZM8.750,1.759 C7.811,1.759 6.961,2.135 6.332,2.739 C8.712,3.238 10.500,5.347 10.500,7.875 C10.500,8.189 10.460,8.493 10.408,8.793 L11.615,9.061 L11.291,7.764 L11.695,7.129 C12.058,6.559 12.250,5.912 12.250,5.259 C12.250,3.329 10.680,1.759 8.750,1.759 ZM10.166,9.666 C10.176,9.639 10.182,9.609 10.192,9.581 C10.182,9.609 10.176,9.639 10.166,9.666 Z"/>
</svg>