<svg 
 xmlns="http://www.w3.org/2000/svg"
 xmlns:xlink="http://www.w3.org/1999/xlink"
 width="19px" height="21px">
<path fill-rule="evenodd"  fill="rgb(155, 158, 163)"
 d="M8.691,19.516 L17.643,21.000 L16.044,16.877 C17.858,15.092 19.000,12.589 19.000,9.800 C19.000,4.387 14.747,-0.000 9.500,-0.000 C4.253,-0.000 -0.000,4.387 -0.000,9.800 C-0.000,14.926 3.829,19.086 8.691,19.516 ZM9.500,2.605 C13.341,2.605 16.467,5.845 16.467,9.826 C16.467,11.801 15.695,13.651 14.295,15.035 L12.931,16.384 L13.883,18.395 L9.112,16.996 L8.908,16.969 C5.274,16.647 2.533,13.576 2.533,9.826 C2.533,5.845 5.659,2.605 9.500,2.605 Z"/>
<path fill-rule="evenodd"  fill="rgb(87, 92, 103)"
 d="M11.719,13.125 L7.281,13.125 C6.591,13.125 6.031,12.565 6.031,11.875 L6.031,11.750 C6.031,11.060 6.591,10.500 7.281,10.500 L11.719,10.500 C12.409,10.500 12.969,11.060 12.969,11.750 L12.969,11.875 C12.969,12.565 12.409,13.125 11.719,13.125 ZM9.969,8.750 L7.281,8.750 C6.591,8.750 6.031,8.190 6.031,7.500 L6.031,7.375 C6.031,6.685 6.591,6.125 7.281,6.125 L9.969,6.125 C10.659,6.125 11.219,6.685 11.219,7.375 L11.219,7.500 C11.219,8.190 10.659,8.750 9.969,8.750 Z"/>
</svg>