<svg 
 xmlns="http://www.w3.org/2000/svg"
 xmlns:xlink="http://www.w3.org/1999/xlink"
 width="12px" height="17px">
<path fill-rule="evenodd"  fill="rgb(157, 160, 165)"
 d="M11.708,4.730 L6.418,13.828 L4.186,15.000 L9.000,15.000 C9.552,15.000 10.000,15.448 10.000,16.000 C10.000,16.552 9.552,17.000 9.000,17.000 L1.000,17.000 C0.845,17.000 0.703,16.958 0.573,16.896 L0.377,16.998 L0.363,16.755 C0.146,16.571 -0.000,16.307 -0.000,16.000 C-0.000,15.729 0.110,15.485 0.285,15.305 L0.006,10.151 L5.295,1.052 C5.879,0.047 7.173,-0.297 8.185,0.283 L10.933,1.859 C11.945,2.440 12.292,3.725 11.708,4.730 ZM8.760,5.319 L6.133,3.813 L2.367,10.292 L2.459,13.468 L5.115,11.868 L9.346,4.589 C9.438,4.431 9.469,4.261 9.473,4.091 L8.760,5.319 Z"/>
</svg>