<svg 
 xmlns="http://www.w3.org/2000/svg"
 xmlns:xlink="http://www.w3.org/1999/xlink"
 width="22px" height="22px">
<path fill-rule="evenodd"  fill="rgb(157, 160, 165)"
 d="M17.000,22.000 L5.000,22.000 C2.239,22.000 -0.000,19.761 -0.000,17.000 L-0.000,11.719 C-0.000,8.957 2.239,6.719 5.000,6.719 L8.781,6.719 L8.781,2.406 L8.781,2.219 C8.781,1.666 9.229,1.219 9.781,1.219 L10.000,1.219 L13.219,1.219 L13.219,1.000 C13.219,0.448 13.666,-0.000 14.219,-0.000 L14.406,-0.000 C14.958,-0.000 15.406,0.448 15.406,1.000 L15.406,2.219 L15.406,2.406 C15.406,2.958 14.958,3.406 14.406,3.406 L14.219,3.406 L11.000,3.406 L11.000,6.719 L17.000,6.719 C19.761,6.719 22.000,8.957 22.000,11.719 L22.000,17.000 C22.000,19.761 19.761,22.000 17.000,22.000 ZM19.781,12.406 C19.781,10.473 18.214,8.906 16.281,8.906 L10.000,8.906 L9.781,8.906 L5.719,8.906 C3.786,8.906 2.219,10.473 2.219,12.406 L2.219,16.281 C2.219,18.214 3.786,19.781 5.719,19.781 L16.281,19.781 C18.214,19.781 19.781,18.214 19.781,16.281 L19.781,12.406 Z"/>
<path fill-rule="evenodd"  fill="rgb(87, 92, 103)"
 d="M9.167,15.344 L8.344,15.344 L8.344,16.167 C8.344,16.627 7.971,17.000 7.510,17.000 L7.489,17.000 C7.029,17.000 6.656,16.627 6.656,16.167 L6.656,15.344 L5.833,15.344 C5.373,15.344 5.000,14.971 5.000,14.510 L5.000,14.490 C5.000,14.029 5.373,13.656 5.833,13.656 L6.656,13.656 L6.656,12.833 C6.656,12.373 7.029,12.000 7.489,12.000 L7.510,12.000 C7.971,12.000 8.344,12.373 8.344,12.833 L8.344,13.656 L9.167,13.656 C9.627,13.656 10.000,14.029 10.000,14.490 L10.000,14.510 C10.000,14.971 9.627,15.344 9.167,15.344 Z"/>
<path fill-rule="evenodd"  fill="rgb(87, 92, 103)"
 d="M14.500,13.000 C15.328,13.000 16.000,13.672 16.000,14.500 C16.000,15.328 15.328,16.000 14.500,16.000 C13.672,16.000 13.000,15.328 13.000,14.500 C13.000,13.672 13.672,13.000 14.500,13.000 Z"/>
</svg>