<svg 
 xmlns="http://www.w3.org/2000/svg"
 xmlns:xlink="http://www.w3.org/1999/xlink"
 width="15px" height="14px">
<path fill-rule="evenodd"  fill="rgb(216, 35, 42)"
 d="M13.677,8.197 L7.493,13.999 L1.310,8.197 C-0.446,6.551 -0.446,3.881 1.310,2.235 C3.011,0.639 5.728,0.604 7.493,2.101 C9.258,0.604 11.975,0.639 13.677,2.235 C15.433,3.881 15.433,6.551 13.677,8.197 ZM12.289,3.558 C11.822,3.121 11.202,2.879 10.543,2.879 C9.920,2.879 9.322,3.096 8.858,3.489 L7.519,4.742 L6.179,3.489 C5.715,3.096 5.117,2.879 4.494,2.879 C3.835,2.879 3.215,3.121 2.748,3.558 C2.277,4.001 2.017,4.588 2.017,5.214 C2.017,5.840 2.277,6.428 2.741,6.864 L7.519,11.301 L12.289,6.871 C12.761,6.428 13.021,5.840 13.021,5.214 C13.021,4.588 12.761,4.001 12.289,3.558 Z"/>
</svg>