<svg 
 xmlns="http://www.w3.org/2000/svg"
 xmlns:xlink="http://www.w3.org/1999/xlink"
 width="18px" height="17px">
<path fill-rule="evenodd"  fill="rgb(179, 182, 185)"
 d="M2.250,3.411 L2.250,13.603 C2.250,14.228 2.754,14.735 3.375,14.735 L14.625,14.735 C15.246,14.735 15.750,14.228 15.750,13.603 L15.750,10.206 L18.000,10.206 L18.000,14.735 C18.000,15.986 16.993,17.000 15.750,17.000 L2.250,17.000 C1.007,17.000 0.000,15.986 0.000,14.735 L0.000,2.279 C0.000,1.028 1.007,0.014 2.250,0.014 L7.875,0.014 L7.875,2.279 L3.375,2.279 C2.754,2.279 2.250,2.786 2.250,3.411 Z"/>
<path fill-rule="evenodd"  fill="rgb(87, 92, 103)"
 d="M17.677,5.288 L14.293,8.727 C13.857,9.171 13.151,9.171 12.715,8.727 C12.279,8.284 12.279,7.566 12.715,7.123 L14.117,5.698 C12.966,5.647 8.389,5.789 6.687,10.612 C6.523,11.075 6.089,11.365 5.627,11.365 C5.502,11.365 5.375,11.344 5.250,11.300 C4.664,11.091 4.359,10.442 4.566,9.853 C6.482,4.427 11.466,3.204 14.235,3.423 L12.724,1.929 C12.288,1.486 12.288,0.768 12.724,0.324 C13.160,-0.119 13.866,-0.119 14.302,0.324 L17.677,3.684 C17.887,3.896 18.004,4.185 18.004,4.486 C18.004,4.787 17.887,5.076 17.677,5.288 Z"/>
</svg>