<svg 
 xmlns="http://www.w3.org/2000/svg"
 xmlns:xlink="http://www.w3.org/1999/xlink"
 width="22px" height="17px">
<path fill-rule="evenodd"  fill="rgb(87, 92, 103)"
 d="M20.625,15.583 C20.148,15.583 17.969,14.386 16.500,13.547 L16.500,14.167 C16.500,15.731 15.269,17.000 13.750,17.000 L4.125,17.000 C2.606,17.000 1.375,15.731 1.375,14.167 L1.375,10.916 C0.616,10.916 -0.000,10.282 -0.000,9.500 L-0.000,5.667 C-0.000,4.884 0.616,4.250 1.375,4.250 L1.375,2.833 C1.375,1.268 2.606,-0.000 4.125,-0.000 L13.750,-0.000 C15.269,-0.000 16.500,1.268 16.500,2.833 L16.500,3.447 C17.959,2.609 20.122,1.417 20.625,1.417 C21.398,1.417 22.000,2.051 22.000,2.833 L22.000,14.167 C22.000,14.949 21.355,15.583 20.625,15.583 ZM13.750,11.333 L13.750,5.667 L13.750,4.250 C13.750,3.468 13.135,2.833 12.375,2.833 L5.500,2.833 C4.740,2.833 4.125,3.468 4.125,4.250 L4.125,5.000 L4.000,5.000 C2.895,5.000 2.000,5.895 2.000,7.000 L2.000,8.000 C2.000,9.104 2.895,10.000 4.000,10.000 L4.125,10.000 L4.125,12.750 C4.125,13.532 4.740,14.167 5.500,14.167 L12.375,14.167 C13.135,14.167 13.750,13.532 13.750,12.750 L13.750,11.333 ZM19.250,5.558 L16.500,6.662 L16.500,10.247 L19.250,11.354 L19.250,5.558 Z"/>
<path fill-rule="evenodd"  fill="rgb(216, 35, 42)"
 d="M5.500,6.000 C6.328,6.000 7.000,6.671 7.000,7.500 C7.000,8.328 6.328,9.000 5.500,9.000 C4.672,9.000 4.000,8.328 4.000,7.500 C4.000,6.671 4.672,6.000 5.500,6.000 Z"/>
</svg>