<svg 
 xmlns="http://www.w3.org/2000/svg"
 xmlns:xlink="http://www.w3.org/1999/xlink"
 width="15px" height="14px">
<path fill-rule="evenodd"  fill="rgb(255, 255, 255)"
 d="M8.056,0.004 C8.056,0.004 8.844,-0.059 9.566,1.329 C10.179,2.505 10.744,3.591 10.744,3.591 C10.744,3.591 12.165,3.880 13.558,4.164 C14.898,4.436 14.972,5.230 14.972,5.230 C14.972,5.230 15.138,5.918 14.131,7.056 C13.242,8.061 12.405,9.008 12.405,9.008 C12.405,9.008 12.599,10.650 12.782,12.195 C12.943,13.566 12.460,13.874 12.460,13.874 C12.460,13.874 11.695,14.163 10.370,13.505 C9.182,12.915 8.056,12.355 8.056,12.355 C8.056,12.355 6.602,13.078 5.256,13.747 C4.095,14.323 3.435,13.775 3.435,13.775 C3.435,13.775 3.154,13.682 3.308,12.384 C3.496,10.787 3.706,9.008 3.706,9.008 C3.706,9.008 2.869,8.061 1.981,7.056 C0.974,5.918 0.954,5.131 0.954,5.131 C0.954,5.131 1.103,4.459 2.380,4.199 C3.826,3.905 5.368,3.591 5.368,3.591 C5.368,3.591 5.907,2.554 6.503,1.410 C7.237,0.000 8.056,0.004 8.056,0.004 M6.319,4.972 C6.319,4.972 4.847,5.272 3.797,5.485 C3.216,5.604 3.218,5.887 3.218,5.887 C3.218,5.887 3.167,6.150 3.647,6.693 C4.357,7.496 5.239,8.493 5.239,8.493 C5.239,8.493 5.107,9.608 4.987,10.630 C4.884,11.496 5.047,11.705 5.047,11.705 C5.047,11.705 5.302,12.043 5.920,11.735 C6.868,11.265 8.066,10.669 8.066,10.669 C8.066,10.669 9.275,11.270 10.224,11.741 C10.838,12.046 11.157,11.935 11.157,11.935 C11.157,11.935 11.287,11.829 11.215,11.222 C11.083,10.097 10.893,8.493 10.893,8.493 C10.893,8.493 11.888,7.369 12.616,6.545 C13.036,6.070 12.987,5.854 12.987,5.854 C12.987,5.854 12.958,5.612 12.417,5.502 C11.364,5.288 9.813,4.972 9.813,4.972 C9.813,4.972 9.107,3.615 8.592,2.627 C8.298,2.061 8.056,2.009 8.056,2.009 C8.056,2.009 7.833,2.063 7.537,2.631 C7.023,3.619 6.319,4.972 6.319,4.972 "/>
</svg>