<svg 
 xmlns="http://www.w3.org/2000/svg"
 xmlns:xlink="http://www.w3.org/1999/xlink"
 width="20px" height="19px">
<path fill-rule="evenodd"  fill="rgb(157, 160, 165)"
 d="M15.358,15.464 L14.540,13.524 C16.439,13.485 17.969,11.940 17.969,10.031 L17.969,5.469 C17.969,3.536 16.402,1.969 14.469,1.969 L5.531,1.969 C3.598,1.969 2.031,3.536 2.031,5.469 L2.031,10.031 C2.031,11.822 3.381,13.281 5.115,13.489 L4.141,15.413 C1.791,15.004 -0.000,12.967 -0.000,10.500 L-0.000,5.000 C-0.000,2.239 2.239,-0.000 5.000,-0.000 L15.000,-0.000 C17.761,-0.000 20.000,2.239 20.000,5.000 L20.000,10.500 C20.000,13.139 17.949,15.277 15.358,15.464 Z"/>
<path fill-rule="evenodd"  fill="rgb(87, 92, 103)"
 d="M14.545,18.162 L5.455,18.199 L9.965,11.029 L14.545,18.162 Z"/>
</svg>