<svg 
 xmlns="http://www.w3.org/2000/svg"
 xmlns:xlink="http://www.w3.org/1999/xlink"
 width="20px" height="20px">
<path fill-rule="evenodd"  fill="rgb(144, 146, 150)"
 d="M10.000,20.000 C4.477,20.000 0.000,15.523 0.000,10.000 C0.000,4.477 4.477,-0.000 10.000,-0.000 C15.523,-0.000 20.000,4.477 20.000,10.000 C20.000,15.523 15.523,20.000 10.000,20.000 ZM10.000,2.500 C5.858,2.500 2.500,5.858 2.500,10.000 C2.500,14.142 5.858,17.500 10.000,17.500 C14.142,17.500 17.500,14.142 17.500,10.000 C17.500,5.858 14.142,2.500 10.000,2.500 Z"/>
<path fill-rule="evenodd"  fill="rgb(87, 92, 103)"
 d="M13.488,10.431 L8.159,13.666 C7.787,13.892 7.483,13.718 7.483,13.281 L7.483,6.761 C7.483,6.323 7.787,6.150 8.159,6.375 L13.488,9.610 C13.860,9.836 13.860,10.205 13.488,10.431 Z"/>
</svg>